<?xml version="1.0" encoding="UTF-8"?>
<svg width="60px" height="60px" viewBox="0 0 60 60" version="1.1" xmlns="http://www.w3.org/2000/svg" xmlns:xlink="http://www.w3.org/1999/xlink">
    <!-- Generator: Sketch 43.2 (39069) - http://www.bohemiancoding.com/sketch -->
    <title>icon_2</title>
    <desc>Created with Sketch.</desc>
    <defs></defs>
    <g id="Page-1" stroke="none" stroke-width="1" fill="none" fill-rule="evenodd">
        <g id="icon_2" fill-rule="nonzero" fill="#FFFFFF">
            <g id="flaticon1493903058-svg" transform="translate(7.000000, 5.000000)">
                <path d="M46.8319365,35.8634766 C46.7084652,35.6263672 46.4884898,35.4561523 46.230375,35.3980469 C46.1652684,35.3833984 40.9366148,34.2140625 34.2723422,33.2803711 C34.263,33.2496094 34.2566434,33.2185547 34.243834,33.1883789 C31.3054672,26.2365234 30.3324324,26.2365234 29.8096537,26.2365234 C29.1794877,26.2365234 26.0486906,26.8889648 23.4999037,27.44375 L23.4999037,20.7525391 C23.538043,20.7525391 23.5759898,20.7495117 23.6136475,20.7446289 C24.4870963,20.9805664 25.3736434,21.0969727 26.2529672,21.0969727 C28.9179057,21.0969727 31.5144631,20.0367187 33.464,18.0600586 C36.1662111,15.3200195 37.1316373,11.3200195 35.9834119,7.62109375 C35.8950943,7.33623047 35.6751189,7.11318359 35.3941783,7.02363281 C31.7464775,5.85966797 27.8015594,6.83828125 25.0989631,9.57822266 C24.6783709,10.0047852 24.3050676,10.4647461 23.97,10.9463867 C23.6339693,8.24160156 22.427668,5.67587891 20.4489488,3.66953125 C17.1834119,0.35859375 12.4167643,-0.824023437 8.0084918,0.582910156 C7.72764754,0.672460937 7.50776844,0.895507812 7.41935451,1.18027344 C6.03179508,5.65009766 7.19841598,10.4834961 10.4637602,13.7946289 C12.8197316,16.1834961 15.9567889,17.4642578 19.1773484,17.4642578 C20.0157398,17.4642578 20.8597172,17.3751953 21.6972418,17.1983398 L21.6972418,27.840625 C21.3480164,27.9183594 21.0378934,27.987793 20.7845943,28.0447266 C18.8992008,27.6758789 15.7957561,27.2719727 14.7500061,28.3321289 L13.0977828,30.0076172 L10.595418,30.8533203 C7.55650205,31.8805664 6.51508607,36.4336914 6.40105328,36.9764648 C5.3688832,36.3433594 4.35029303,35.5907227 3.37090164,34.6970703 C3.20543852,34.5459961 2.99066393,34.4624023 2.76789549,34.4624023 C0.771936475,34.4624023 0.0636618852,35.447168 0.0636618852,36.290332 C0.0636618852,36.5535156 0.0636618852,37.0435547 1.95830123,39.2720703 C2.69026844,40.1329102 4.2333709,41.8555664 6.34480738,43.7201172 C9.58877049,46.5849609 14.4164795,50 18.9930082,50 C24.2660615,50 28.0359816,48.875293 30.7887561,48.0540039 C32.2793689,47.6092773 33.456873,47.2581055 34.3167418,47.2581055 C37.0639303,47.2581055 42.3537418,46.3695312 42.5774734,46.3317383 C42.8880779,46.2791992 43.1491783,46.0661133 43.2661967,45.7695312 L46.8718094,36.6296875 C46.9700471,36.3807617 46.9554078,36.1005859 46.8319365,35.8634766 Z M26.3739344,10.8709961 C28.4864303,8.72900391 31.5213012,7.89404297 34.3943689,8.63505859 C35.1251803,11.5480469 34.3017172,14.6254883 32.1892213,16.7674805 C30.2564426,18.7273437 27.5519201,19.5889648 24.9052807,19.1543945 C25.6370553,17.9250977 26.6661434,16.5133789 27.5086762,16.0862305 C27.9538279,15.8605469 28.1343156,15.3115234 27.9117398,14.8599609 C27.6890676,14.4086914 27.1474119,14.2255859 26.7023566,14.4512695 C25.6492869,14.9851562 24.6559303,16.2124023 23.9190512,17.3192383 C23.8017439,14.9458984 24.666043,12.6027344 26.3739344,10.8709961 Z M17.5916762,10.5453125 C19.956123,12.1436523 20.8096352,15.4385742 20.8230225,15.4916992 C20.8236004,15.4941406 20.8247561,15.4962891 20.8254303,15.4987305 C17.5222357,16.027832 14.1508525,14.9477539 11.7386352,12.5019531 C9.06242828,9.78847656 8.03709631,5.87724609 9.006375,2.19199219 C12.6405922,1.20986328 16.498252,2.24873047 19.1743627,4.96240234 C21.5101086,7.33066406 22.5874488,10.6114258 22.1794734,13.8580078 C21.6582357,12.5182617 20.5657746,10.3587891 18.591582,9.02441406 C18.1769611,8.74414062 17.6174877,8.85791016 17.3415553,9.27792969 C17.0654303,9.69775391 17.1773443,10.265332 17.5916762,10.5453125 Z M8.15883402,37.3835937 C8.38102459,36.2570312 9.35425205,33.199707 11.165582,32.5875 L13.8697193,31.6735352 C14.0024365,31.6286133 14.1230184,31.5530273 14.2220266,31.4527344 L16.0104344,29.6393555 C16.4532746,29.3629883 18.6384857,29.4739258 20.6192275,29.8746094 C20.7422172,29.8994141 20.8691557,29.8981445 20.991375,29.8706055 C24.5745471,29.0632812 28.5532705,28.2240234 29.6033545,28.0844727 C30.1252664,28.6677734 31.2474877,30.8662109 32.1948074,33.0035156 C31.1489611,32.871875 30.0794221,32.7485352 28.9980369,32.6388672 C20.0434775,31.7305664 14.8894652,32.5143555 13.679793,34.9674805 C13.4372807,35.459375 13.4530758,35.9956055 13.7232295,36.4387695 C14.4693545,37.6629883 17.1191721,38.1182617 23.4999037,38.1182617 C24.4086988,38.1182617 24.8301578,38.3608398 24.9150082,38.5685547 C24.9904201,38.752832 24.895457,39.0486328 24.6934918,39.2702148 C24.2327377,39.5482422 21.194207,40.4373047 16.8178135,40.1582031 C14.3509877,40.0004883 11.1378443,39.430957 7.93307992,37.8259766 C8.04354918,37.7061523 8.12473975,37.5560547 8.15883402,37.3835937 Z M41.7820369,44.6098633 C40.3928402,44.831543 36.445418,45.4300781 34.3167418,45.4300781 C33.1970246,45.4300781 31.9097254,45.8140625 30.2799426,46.300293 C27.6323402,47.0902344 24.0064057,48.1719727 18.9930082,48.1719727 C15.0952828,48.1719727 10.7974795,45.1673828 7.87847131,42.646875 C4.77021107,39.9629883 2.65415164,37.3558594 2.01907377,36.3945312 C2.14148566,36.3598633 2.2946209,36.3302734 2.45016393,36.3115234 C7.35578893,40.6344727 13.0686004,41.7953125 17.0312398,42.0013672 C21.1242848,42.2144531 25.1109057,41.4330078 25.9401475,40.5924805 C26.6815533,39.840625 26.9389939,38.7460937 26.5806189,37.8689453 C26.3397439,37.2792969 25.6192377,36.2902344 23.4999037,36.2902344 C17.8844631,36.2902344 16.0246885,35.8947266 15.4300615,35.584668 C16.000418,34.9293945 18.4613689,33.4080078 28.8186086,34.4577148 C35.8160225,35.1672852 42.3346721,36.4459961 44.7997643,36.9598633 L41.7820369,44.6098633 Z" id="Shape"></path>
            </g>
        </g>
    </g>
</svg>