<?xml version="1.0" encoding="UTF-8"?>
<svg width="60px" height="60px" viewBox="0 0 60 60" version="1.1" xmlns="http://www.w3.org/2000/svg" xmlns:xlink="http://www.w3.org/1999/xlink">
    <!-- Generator: Sketch 43.2 (39069) - http://www.bohemiancoding.com/sketch -->
    <title>icon_3</title>
    <desc>Created with Sketch.</desc>
    <defs></defs>
    <g id="Page-1" stroke="none" stroke-width="1" fill="none" fill-rule="evenodd">
        <g id="icon_3" fill-rule="nonzero" fill="#FFFFFF">
            <g id="flaticon1493903067-svg" transform="translate(13.000000, 2.000000)">
                <path d="M32.3447297,14.2823 L33.4685135,14.01155 L32.9832432,12.95895 C32.2766216,11.4266 29.767027,8.75235 25.3305405,9.5741 C25.0098649,9.63395 24.7005405,9.72135 24.3978378,9.8268 C26.1241892,6.9768 29.7518919,4.76995 32.3608108,4.09355 L34.1505405,3.62995 L32.7297297,2.4434 C32.5887838,2.3256 29.2354054,-0.4389 24.9843243,0.05985 C21.5335135,0.46075 18.9283784,1.9418 17.2105405,4.4498 C15.9524324,3.6841 14.3641892,3.13025 12.3606757,2.91365 C8.36405405,2.48425 5.1922973,4.9039 5.05891892,5.0065 L3.49716216,6.21965 L5.41743243,6.6823 C8.295,7.37485 12.2424324,9.76315 13.4362162,12.6863 C13.1202703,12.5837 12.7910811,12.4906 12.4325676,12.4241 C6.75878378,11.3696 5.71540541,14.8523 5.67378378,15.0005 L5.40702703,15.95145 L6.36432432,16.1823 C8.97135135,16.81025 10.202027,17.84765 10.7837838,18.67605 C7.01797297,19.48165 4.46486486,21.1584 2.92391892,23.7956 C0.908108108,27.2441 0.909054054,31.93425 0.909054054,36.89895 L0.909054054,37.10795 C0.909054054,47.58455 8.10013514,56.10795 16.9381081,56.10795 L17.3694595,56.10795 C26.2074324,56.10795 33.3975676,47.58455 33.3975676,37.10795 L33.3975676,36.89895 C33.3975676,33.75635 33.3947297,30.7268 32.8839189,28.0497 L32.9132432,28.0307 L32.8621622,27.95375 C32.5651351,26.4385 32.1082432,25.0344 31.3836486,23.7956 C29.9845946,21.4016 27.7502703,19.79895 24.5340541,18.92115 C25.9056757,17.39925 28.7548649,15.1468 32.3447297,14.2823 Z M25.2018919,1.9475 C27.0871622,1.7309 28.8002703,2.3351 29.9656757,2.9298 C26.5952703,4.39375 22.5731081,7.51165 21.6914865,11.47505 C21.6772973,11.4874 21.665,11.5007 21.6517568,11.51305 C21.647973,11.4931 21.6432432,11.47315 21.6394595,11.4532 C21.6167568,11.3259 21.5883784,11.19575 21.5618919,11.0656 C21.5354054,10.93735 21.5108108,10.81005 21.4805405,10.68085 C21.4427027,10.52125 21.3982432,10.3607 21.3537838,10.1992 C21.3272973,10.10325 21.3017568,10.00825 21.2724324,9.91135 C21.2137838,9.7185 21.1475676,9.52565 21.0785135,9.3328 C21.0567568,9.2739 21.0368919,9.215 21.0141892,9.1561 C20.9290541,8.93095 20.8344595,8.70865 20.7332432,8.48635 C20.7237838,8.46545 20.7143243,8.4455 20.7048649,8.4246 C20.2385135,7.4176 19.5943243,6.44765 18.707027,5.6031 C20.1108108,3.515 22.2912162,2.28475 25.2018919,1.9475 Z M7.94594595,5.5309 C9.02432432,5.05685 10.517027,4.62745 12.1582432,4.80225 C14.3027027,5.03405 15.872973,5.72755 17.027027,6.6804 C17.237973,6.8552 17.4366216,7.03665 17.6191892,7.2276 C17.657973,7.2675 17.7014865,7.3055 17.7393243,7.34635 C17.9654054,7.5943 18.1687838,7.8546 18.3532432,8.1225 C18.3778378,8.15765 18.3995946,8.19375 18.4232432,8.2289 C18.6010811,8.49775 18.7628378,8.77325 18.9037838,9.0554 C18.9066216,9.06015 18.9085135,9.0649 18.9113514,9.06965 C19.2159459,9.6824 19.4382432,10.31985 19.5990541,10.95255 C19.6018919,10.96205 19.6037838,10.97155 19.6066216,10.98105 C19.7627027,11.60235 19.8582432,12.217 19.9140541,12.79935 C19.9187838,12.85065 19.9216216,12.90195 19.9263514,12.95325 C19.9386486,13.0986 19.9452703,13.23635 19.9528378,13.37695 C19.9121622,13.43015 19.8677027,13.48335 19.827973,13.53655 C19.7210811,13.6496 19.6378378,13.77215 19.5801351,13.8776 C19.5347297,13.9422 19.4968919,14.00585 19.4533784,14.07045 C19.3133784,14.2747 19.18,14.47705 19.0522973,14.6794 C19.0087838,14.7497 18.9662162,14.8181 18.9236486,14.88745 C18.7760811,15.1278 18.637973,15.3634 18.5074324,15.59615 C18.4894595,15.6275 18.4714865,15.65885 18.4544595,15.6902 C18.1517568,16.23645 17.8963514,16.74755 17.6910811,17.1912 C17.3893243,16.08065 16.7763514,14.86465 15.6743243,13.9175 C15.3602703,10.1878 11.5197297,7.03475 7.94594595,5.5309 Z M12.7825676,18.3464 C12.2367568,17.1855 10.9909459,15.6959 8.16067568,14.72595 C8.785,14.28135 9.95418919,13.8947 12.0863514,14.2918 C13.0493243,14.47135 13.7625676,14.83615 14.3140541,15.27695 C14.4445946,15.38145 14.5666216,15.48975 14.6782432,15.6028 C14.7387838,15.66455 14.7983784,15.72535 14.8541892,15.789 C14.9762162,15.93055 15.0897297,16.07495 15.1881081,16.2222 C15.2117568,16.25735 15.2363514,16.29155 15.2581081,16.3267 C15.6535135,16.95845 15.8483784,17.61015 15.9448649,18.11935 C15.9098649,18.1203 15.8777027,18.12315 15.8427027,18.1241 C14.7577027,18.1526 13.7427027,18.2267 12.7901351,18.34355 C12.7872973,18.34545 12.7844595,18.3464 12.7825676,18.3464 Z M29.75,24.757 C29.7613514,24.77695 29.7689189,24.7988 29.7802703,24.81875 L26.7258108,27.8863 L28.0633784,29.2296 L30.0858108,27.19945 L31.0885135,28.7109 C31.3278378,30.08935 31.4290541,31.59795 31.4716216,33.2101 L30.2324324,31.9656 L26.7258108,35.48725 L28.0633784,36.83055 L30.2324324,34.6522 L31.4555405,35.88055 L31.5028378,35.83305 C31.5037838,36.1874 31.5047297,36.53795 31.5047297,36.89895 L31.5047297,37.10795 C31.5047297,38.21755 31.4101351,39.30055 31.2417568,40.3522 L30.0460811,39.7518 L26.7258108,43.0863 L28.0633784,44.4296 L30.4187838,42.0641 L30.8406757,42.27595 C29.0254054,49.18625 23.6732432,54.20795 17.3675676,54.20795 L16.9362162,54.20795 C10.692027,54.20795 5.38905405,49.2803 3.5227027,42.4745 L3.745,42.25125 L5.91405405,44.4296 L7.25162162,43.0863 L3.745,39.56465 L3.05067568,40.26195 C2.89175676,39.23785 2.79905405,38.1862 2.79905405,37.10795 L2.79905405,36.89895 C2.79905405,36.45815 2.8,36.02875 2.80094595,35.59935 L3.745,34.65125 L5.91405405,36.8296 L7.25162162,35.4863 L3.745,31.96465 L2.84540541,32.8681 C2.91162162,30.80945 3.08094595,28.91895 3.53121622,27.26595 L3.745,27.05125 L5.91405405,29.2296 L7.25162162,27.8863 L4.41567568,25.0382 C4.46486486,24.947 4.50081081,24.8463 4.55378378,24.757 C5.66716216,22.8513 7.49378378,21.5498 10.1367568,20.79645 L6.86094595,24.0863 L8.19851351,25.4296 L10.3675676,23.25125 L12.5366216,25.4296 L13.8741892,24.0863 L10.4981081,20.69575 C11.0041892,20.56465 11.5414865,20.4554 12.1052703,20.3623 L12.3067568,20.33095 C13.6859459,20.1172 15.242973,20.0089 16.9891892,20.0089 L17.3675676,20.0089 C17.5718919,20.0089 17.7667568,20.0146 17.9663514,20.01745 L17.9862162,20.01935 C19.7560811,20.0469 21.3509459,20.1951 22.7272973,20.4592 L23.0706757,20.5257 C23.2305405,20.5599 23.3904054,20.59315 23.5455405,20.6302 L20.1032432,24.08725 L21.4408108,25.43055 L23.6098649,23.2522 L25.7789189,25.43055 L27.1164865,24.08725 L23.7148649,20.67105 C26.6075676,21.3997 28.5732432,22.74395 29.75,24.757 Z M19.3332432,18.16115 L19.3304054,18.16115 C19.4382432,17.9227 19.5659459,17.65575 19.7078378,17.37265 C19.7248649,17.33845 19.7418919,17.3052 19.7589189,17.27005 C19.8156757,17.15795 19.8771622,17.0411 19.9386486,16.92425 C20.0077027,16.79505 20.0786486,16.66395 20.1533784,16.53 C20.1845946,16.473 20.2148649,16.4179 20.247027,16.3609 C20.3766216,16.1348 20.5137838,15.90395 20.6613514,15.67025 C20.6641892,15.6655 20.667027,15.6617 20.6698649,15.65695 C20.8221622,15.41565 20.9839189,15.1715 21.1551351,14.92925 L21.717973,14.19205 C22.1654054,13.63915 22.6468919,13.14325 23.152973,12.72335 L23.4225676,12.5001 L23.4244595,12.48965 C24.1074324,11.97665 24.8585135,11.59665 25.672973,11.44465 C28.2582432,10.96205 29.7944595,11.98045 30.5833784,12.8174 C26.6908108,14.13125 23.6609459,16.8245 22.452973,18.47845 C21.49,18.3198 20.4466216,18.2172 19.3332432,18.16115 Z" id="Shape"></path>
                <polygon id="Shape" points="10.3675676 43.36465 6.86094595 46.8863 8.19851351 48.2296 10.3675676 46.05125 12.5366216 48.2296 13.8741892 46.8863"></polygon>
                <polygon id="Shape" points="13.4825676 51.6363 14.8201351 52.9796 16.9891892 50.80125 19.1582432 52.9796 20.4958108 51.6363 16.9891892 48.11465"></polygon>
                <polygon id="Shape" points="20.1041892 46.8863 21.4417568 48.2296 23.6108108 46.05125 25.7798649 48.2296 27.1174324 46.8863 23.6108108 43.36465"></polygon>
                <polygon id="Shape" points="10.3675676 38.45125 12.5366216 40.6296 13.8741892 39.2863 10.3675676 35.76465 6.86094595 39.2863 8.19851351 40.6296"></polygon>
                <polygon id="Shape" points="13.4825676 43.0863 14.8201351 44.4296 16.9891892 42.25125 19.1582432 44.4296 20.4958108 43.0863 16.9891892 39.56465"></polygon>
                <polygon id="Shape" points="20.1041892 39.2863 21.4417568 40.6296 23.6108108 38.45125 25.7798649 40.6296 27.1174324 39.2863 23.6108108 35.76465"></polygon>
                <polygon id="Shape" points="10.3675676 30.85125 12.5366216 33.0296 13.8741892 31.6863 10.3675676 28.16465 6.86094595 31.6863 8.19851351 33.0296"></polygon>
                <polygon id="Shape" points="16.9891892 31.96465 13.4825676 35.4863 14.8201351 36.8296 16.9891892 34.65125 19.1582432 36.8296 20.4958108 35.4863"></polygon>
                <polygon id="Shape" points="20.1041892 31.6863 21.4417568 33.0296 23.6108108 30.85125 25.7798649 33.0296 27.1174324 31.6863 23.6108108 28.16465"></polygon>
                <polygon id="Shape" points="16.9891892 27.05125 19.1582432 29.2296 20.4958108 27.8863 16.9891892 24.36465 13.4825676 27.8863 14.8201351 29.2296"></polygon>
            </g>
        </g>
    </g>
</svg>