<?xml version="1.0" encoding="UTF-8"?>
<svg width="60px" height="60px" viewBox="0 0 60 60" version="1.1" xmlns="http://www.w3.org/2000/svg" xmlns:xlink="http://www.w3.org/1999/xlink">
    <!-- Generator: Sketch 43.2 (39069) - http://www.bohemiancoding.com/sketch -->
    <title>icon_1</title>
    <desc>Created with Sketch.</desc>
    <defs></defs>
    <g id="Page-1" stroke="none" stroke-width="1" fill="none" fill-rule="evenodd">
        <g id="icon_1" fill-rule="nonzero" fill="#FFFFFF">
            <g id="flaticon1493902979-svg" transform="translate(9.000000, 5.000000)">
                <path d="M41.7162818,34.4247429 L36.5306548,31.4354463 L40.9085588,28.8343772 C41.6123758,28.4960979 41.8302011,27.5532403 41.4299403,26.8600552 C41.0224781,26.1501751 40.1430154,26.0004673 39.4754111,26.3886264 L33.6383659,29.7994036 L24.3616565,24.414236 L33.6382973,19.0845587 L39.4753425,22.4897937 C39.6576409,22.6228749 39.8922008,22.700534 40.1530288,22.700534 C40.6477308,22.700534 41.0908571,22.4676249 41.4298717,22.0239071 C41.8207364,21.3195692 41.6123072,20.3878644 40.9084902,20.0495851 L36.5305862,17.448516 L41.7162132,14.4592878 C42.3921162,14.0710603 42.6245501,13.2003197 42.2375947,12.4848974 C41.8679913,11.7971861 40.9534818,11.5587348 40.2569347,11.9635888 L35.045177,14.9805964 L34.9673332,9.77845807 C34.9551251,8.9742922 34.3419086,8.32537625 33.5341856,8.32537625 C32.7265997,8.32537625 32.0950025,9.02417196 32.1011065,9.77845807 L32.1528194,16.6443501 L22.9284403,21.9740273 L22.9284403,11.1593545 L28.7394233,7.85394743 C29.4177954,7.47126218 29.7133958,6.57835274 29.3125863,5.87962544 C28.9056042,5.16974533 28.070173,4.95893659 27.3580572,5.35831685 L22.9284403,7.85401585 L22.9284403,1.9530134 C22.9284403,1.14884753 22.2768848,0.5 21.4691618,0.5 C20.6614388,0.5 20.0360142,1.14884753 20.0360142,1.9530134 L20.0360142,7.90936939 L15.4496811,5.35824843 C14.7353019,4.96447879 13.9220236,5.18630349 13.5212141,5.87955702 C13.1143006,6.58943713 13.3672413,7.46017779 14.0682463,7.85387901 L20.0360142,11.2092343 L20.0360142,21.918537 L10.6027258,16.4890317 L10.6549874,9.77838965 C10.7333798,9.02417196 10.0556935,8.32530782 9.24797053,8.32530782 L9.19570892,8.32530782 C8.44017894,8.32530782 7.77092861,8.97422377 7.76256127,9.77838965 L7.71029966,14.8252096 L2.6292645,11.9135722 C1.91989208,11.5031759 1.04433872,11.7471694 0.674666734,12.4293386 C0.287711381,13.1503031 0.487841782,13.9988749 1.19611685,14.4092712 L6.32941362,17.3707884 L1.84712362,20.0495167 C1.14378666,20.3878644 0.924178179,21.3306536 1.3522844,22.0239071 C1.62799524,22.4731671 2.02942198,22.700534 2.57693431,22.700534 C2.8632072,22.700534 3.1016765,22.6284171 3.33239571,22.4897937 L9.19564034,19.0346105 L18.6028665,24.414236 L9.19564034,29.8492834 L3.33239571,26.3886264 C2.62857865,25.9782301 1.72133913,26.1723439 1.35221582,26.8600552 C0.965260465,27.5754775 1.17540424,28.4351338 1.84698645,28.8343772 L6.32934503,31.4853261 L1.19597968,34.4746227 C0.489419232,34.8850189 0.260346052,35.7502174 0.674529565,36.4545553 C0.964231694,36.9426107 1.3522844,37.1811304 1.89931664,37.1811304 C2.02942198,37.1811304 2.29011274,37.1034712 2.6292645,36.9703901 L7.71029966,34.0587527 L7.76256127,39.1055726 C7.77092861,39.9097385 8.44017894,40.5308751 9.19570892,40.5308751 L9.24797053,40.5308751 C10.0556935,40.5308751 10.6610914,39.8597903 10.6549874,39.0500823 L10.6027258,32.3449824 L20.0360142,26.9654253 L20.0360142,37.6192376 L14.0682463,40.9745245 C13.3561305,41.3738363 13.1070306,42.244577 13.5212141,42.9489149 C13.8108476,43.4425125 14.1989004,43.6809638 14.745864,43.6809638 C15.0066234,43.6809638 15.2467387,43.6366262 15.4496811,43.5201032 L20.0360142,40.9245079 L20.0360142,46.9807602 C20.0360142,47.7849261 20.6614388,48.4116049 21.4691618,48.4116049 C22.2768848,48.4116049 22.9284403,47.7849261 22.9284403,46.9807602 L22.9284403,41.0243358 L27.3580572,43.5201032 C27.5608624,43.6365578 27.8010463,43.6809638 28.0357434,43.6809638 C28.6087693,43.6809638 29.0313201,43.4480547 29.3125863,42.9489149 C29.7083891,42.2501192 29.4527051,41.3737679 28.7394233,40.9745245 L22.9284403,37.7246078 L22.9284403,26.9099349 L32.1528194,32.2396122 L32.1011065,39.0500823 C32.0943852,39.8597903 32.7265312,40.5308751 33.5342542,40.5308751 C34.3419772,40.5308751 34.9551251,39.9097385 34.9673332,39.1055726 L35.045177,33.8757234 L40.2569347,36.9204419 C40.4581625,37.0368965 40.7260546,37.0757603 41.0129448,37.0757603 C41.5600456,37.0757603 41.9613352,36.8483934 42.2375261,36.3991333 C42.6652208,35.7058798 42.3921848,34.8129704 41.7162818,34.4247429 Z" id="Shape"></path>
            </g>
        </g>
    </g>
</svg>